<?xml version="1.0" standalone="no"?>
<!DOCTYPE svg PUBLIC "-//W3C//DTD SVG 20010904//EN"
 "http://www.w3.org/TR/2001/REC-SVG-20010904/DTD/svg10.dtd">
<svg version="1.0" xmlns="http://www.w3.org/2000/svg"
 width="512.000000pt" height="512.000000pt" viewBox="0 0 512.000000 512.000000"
 preserveAspectRatio="xMidYMid meet">
<metadata>
Created by potrace 1.14, written by Peter Selinger 2001-2017
</metadata>
<g transform="translate(0.000000,512.000000) scale(0.100000,-0.100000)"
fill="#000000" stroke="none">
<path d="M5050 4146 c-5 -15 -10 -30 -10 -32 0 -3 -19 -44 -42 -92 -100 -208
-236 -381 -418 -533 -51 -43 -215 -159 -224 -159 -2 0 -33 -17 -67 -38 -98
-58 -214 -113 -554 -264 -591 -261 -834 -457 -982 -793 -67 -153 -97 -377 -72
-540 33 -217 134 -439 300 -661 86 -114 111 -137 77 -69 -78 154 -157 409
-186 595 -13 85 -6 311 12 377 55 203 178 354 386 472 46 25 178 91 185 91 3
0 25 8 48 19 51 23 190 72 393 139 196 65 269 93 382 149 357 173 577 445 697
861 25 88 30 108 40 167 3 17 8 37 10 45 8 28 43 285 39 289 -2 2 -8 -8 -14
-23z"/>
<path d="M34 4140 c5 -27 12 -72 21 -135 15 -106 23 -154 31 -175 3 -8 8 -33
11 -54 10 -76 95 -312 149 -416 128 -247 300 -414 561 -545 126 -63 191 -88
526 -201 260 -88 450 -171 568 -250 180 -120 291 -284 327 -484 11 -57 9 -288
-3 -350 -27 -154 -92 -358 -169 -540 -20 -47 -30 -78 -24 -69 287 354 404 638
393 954 -12 386 -227 708 -626 939 -102 59 -288 150 -489 239 -284 125 -372
167 -515 250 -344 197 -588 460 -720 777 -30 72 -50 101 -41 60z"/>
<path d="M2265 3870 c-209 -19 -243 -24 -435 -65 -47 -9 -154 -46 -194 -67
-64 -32 -95 -57 -111 -89 -13 -25 -14 -33 -1 -63 25 -60 105 -107 259 -151 85
-25 104 -29 197 -45 52 -9 79 -13 175 -25 184 -23 605 -23 785 0 19 3 58 7 85
11 42 5 210 36 265 48 46 11 151 51 192 73 94 51 123 107 85 164 -29 44 -155
107 -274 137 -86 22 -105 26 -168 37 -78 13 -94 15 -145 21 -30 3 -73 8 -95
11 -72 8 -538 10 -620 3z m485 -45 c80 -3 156 -8 170 -10 14 -2 46 -6 72 -9
145 -18 242 -42 310 -77 54 -27 64 -51 36 -84 -24 -26 -130 -68 -202 -79 -21
-4 -41 -8 -45 -10 -3 -2 -35 -7 -71 -11 -36 -4 -74 -9 -85 -11 -115 -22 -601
-21 -780 1 -293 37 -438 94 -404 157 22 41 194 96 352 113 32 4 68 8 80 11 12
2 90 7 172 10 83 4 151 7 153 9 1 1 24 1 50 -1 26 -1 112 -5 192 -9z"/>
<path d="M191 3073 c17 -151 21 -181 34 -238 47 -218 115 -390 201 -506 74
-102 210 -205 324 -247 54 -20 180 -51 230 -57 25 -3 61 -7 80 -10 19 -2 85
-7 145 -10 447 -22 542 -39 674 -119 110 -67 160 -134 245 -326 l15 -35 -4 55
c-27 338 -151 533 -425 663 -120 57 -197 81 -517 161 -453 113 -589 173 -771
341 -71 66 -163 207 -198 303 -36 101 -42 106 -33 25z"/>
<path d="M4891 3083 c-27 -93 -109 -229 -190 -316 -77 -83 -227 -182 -341
-226 -19 -8 -48 -20 -65 -27 -62 -26 -321 -99 -425 -119 -10 -2 -80 -20 -156
-40 -378 -100 -561 -219 -664 -430 -53 -109 -75 -198 -85 -348 -4 -52 9 -56
19 -6 7 34 70 164 89 184 7 6 26 27 43 47 67 77 179 134 319 163 103 21 106
21 465 40 106 6 187 14 210 20 8 2 36 7 61 9 95 11 246 69 332 128 132 90 249
258 315 453 35 103 77 306 88 424 2 31 7 64 10 74 3 9 2 17 -3 17 -5 0 -15
-21 -22 -47z"/>
<path d="M1040 1863 c0 -7 40 -63 79 -110 40 -48 141 -133 186 -155 54 -27
149 -56 205 -63 70 -8 119 -14 173 -20 176 -23 281 -123 343 -327 10 -32 21
-58 25 -58 16 0 -4 254 -27 330 -59 200 -191 302 -434 335 -25 3 -56 8 -70 10
-14 2 -65 6 -115 10 -49 3 -101 8 -115 10 -14 2 -50 6 -80 9 -30 4 -81 13
-112 20 -32 7 -58 11 -58 9z"/>
<path d="M4034 1860 c-25 -10 -158 -31 -223 -35 -45 -3 -119 -10 -236 -21 -33
-3 -67 -7 -75 -9 -8 -2 -31 -7 -50 -11 -45 -8 -65 -12 -65 -14 0 -1 -8 -3 -18
-5 -10 -2 -42 -15 -71 -29 -170 -83 -242 -232 -250 -519 -1 -43 0 -80 3 -82 2
-3 15 25 28 62 81 233 171 304 413 327 220 21 328 65 444 181 59 58 132 152
124 160 -1 1 -12 -1 -24 -5z"/>
</g>
</svg>
